<?xml version="1.0" encoding="utf-8"?>
<!-- Generator: Adobe Illustrator 27.0.0, SVG Export Plug-In . SVG Version: 6.00 Build 0)  -->
<svg version="1.1" id="レイヤー_1" xmlns="http://www.w3.org/2000/svg" xmlns:xlink="http://www.w3.org/1999/xlink" x="0px"
	 y="0px" viewBox="0 0 255.1 90.7" style="enable-background:new 0 0 255.1 90.7;" xml:space="preserve">
<style type="text/css">
	.st0{fill:#B78C7D;}
	.st1{fill:#D4A795;}
	.st2{fill:#B5B5B6;}
	.st3{fill:#3E3A39;}
</style>
<g>
	<g>
		<polygon class="st0" points="37.2,48.9 35.9,49.1 31.9,52.2 35.1,53.5 39.3,51.9 40.3,50.2 		"/>
		<polygon class="st0" points="62.4,16.2 60.1,16.1 57.2,19.4 60.4,20.8 65.6,18.5 65.6,17.5 		"/>
		<path id="XMLID_00000051353492650455645590000017398702464171951767_" class="st1" d="M50.4,44.6L50.4,44.6l-1.6,6.5l-1.6-6.5h0
			c0.5,0.1,1.1,0.2,1.6,0.2C49.3,44.9,49.9,44.8,50.4,44.6z"/>
		<polygon id="XMLID_00000093149729256805844420000017050955548872474259_" class="st2" points="54.1,41.8 55.7,40.2 58.8,44.9 		
			"/>
		<path id="XMLID_00000116222790561436482050000015772763724051739015_" class="st1" d="M58.6,33.2l6.5,1.6l-6.5,1.6
			c0.1-0.5,0.2-1.1,0.2-1.6C58.8,34.3,58.7,33.7,58.6,33.2z"/>
		<path id="XMLID_00000059294413584957013100000013210078969987928244_" class="st1" d="M48.8,18.5l1.6,6.5h0
			c-0.5-0.1-1.1-0.2-1.6-0.2c-0.6,0-1.1,0.1-1.6,0.2h0L48.8,18.5z"/>
		<path id="XMLID_00000016780360853258983770000007088655239060128918_" class="st1" d="M39,36.5L39,36.5l-6.5-1.6l6.5-1.6v0
			c-0.1,0.5-0.2,1.1-0.2,1.6C38.7,35.4,38.8,35.9,39,36.5z"/>
		<polygon id="XMLID_00000156562860669883154700000016321476978906385823_" class="st2" points="41.8,29.5 43.4,27.9 38.7,24.8 		
			"/>
		<polygon class="st1" points="64.2,26.4 67.7,34.8 62.1,48.2 48.8,53.7 40.3,50.2 35.1,53.5 48.8,59.1 65.9,52 73.1,34.8 
			67.4,21.2 		"/>
		<polygon class="st2" points="24.5,34.8 30.1,48.5 33.4,43.3 29.9,34.8 33.4,26.4 30.1,21.1 		"/>
		<path class="st1" d="M50.4,37.8c-1.3,0.7-3,0.5-4.1-0.6c-1.1-1.1-1.3-2.8-0.6-4.1l-1.8-1.8l-4.9,8l-4.4,7.1l-3.2,5.3l-0.7,1.2
			l1.2-0.7l5.3-3.2l7.1-4.4l8-4.9L50.4,37.8z"/>
		<polygon class="st1" points="31.6,17.7 31.6,17.7 31.6,17.7 31.6,17.7 		"/>
		<polygon class="st1" points="48.8,10.5 35.1,16.2 35.1,16.2 31.6,17.7 34.2,22 40.3,19.4 40.3,19.4 48.8,15.9 57.2,19.4 
			62.4,16.2 		"/>
		<path class="st2" d="M65.6,17.5l-5.3,3.2L46.9,29l-1.6,1l1.8,1.8c0.7-0.4,1.4-0.5,2.2-0.4c0.7,0.1,1.4,0.4,1.9,1
			c0.5,0.5,0.8,1.2,1,1.9c0.1,0.7,0,1.5-0.4,2.2l1.8,1.8l1-1.6l8.3-13.5l3.2-5.3l0.7-1.2L65.6,17.5z M55.7,29.5l-1.6-1.6l4.7-3
			L55.7,29.5z"/>
	</g>
	<g>
		<path id="XMLID_00000183940436322723455820000007724663098288178820_" class="st3" d="M101,30.8h-0.5c-0.2-0.1-0.6-0.1-1.1-0.2
			c-0.5,0-1-0.1-1.5-0.1c-0.7,0-1.4,0.1-2.1,0.3c-0.7,0.2-1.4,0.4-2.1,0.7v13.7h-6.4V24.8h6.4v2.9c0.3-0.3,0.7-0.6,1.2-1
			c0.5-0.4,1-0.7,1.4-1c0.5-0.3,1-0.5,1.6-0.7c0.6-0.2,1.2-0.3,1.7-0.3c0.2,0,0.4,0,0.7,0c0.3,0,0.5,0,0.7,0.1V30.8z"/>
		<path id="XMLID_00000106866969659302383320000001067897990809035403_" class="st3" d="M116.7,45.8c-3.9,0-6.8-0.9-8.9-2.8
			c-2.1-1.8-3.1-4.5-3.1-7.9c0-3.3,1-6,2.9-8c1.9-2,4.6-3,8-3c3.1,0,5.5,0.8,7.1,2.5c1.6,1.7,2.4,4.1,2.4,7.2v2.3h-14
			c0.1,0.9,0.3,1.7,0.6,2.4c0.3,0.6,0.8,1.1,1.3,1.5c0.5,0.4,1.2,0.6,1.9,0.8c0.7,0.2,1.5,0.2,2.4,0.2c0.7,0,1.5-0.1,2.2-0.2
			c0.7-0.2,1.4-0.4,2-0.6c0.5-0.2,1-0.5,1.4-0.7c0.4-0.3,0.8-0.5,1.1-0.7h0.7v5.3c-0.5,0.2-1,0.4-1.4,0.6c-0.4,0.2-1,0.4-1.8,0.5
			c-0.7,0.2-1.4,0.3-2.1,0.4C118.7,45.7,117.8,45.8,116.7,45.8z M118.8,32.4c0-1.3-0.3-2.4-0.9-3.1c-0.6-0.7-1.5-1.1-2.7-1.1
			c-1.2,0-2.2,0.4-2.9,1.1c-0.7,0.7-1.1,1.7-1.2,3H118.8z"/>
		<rect id="XMLID_00000044889241472555716390000000540374006456608940_" x="132.6" y="28.7" class="st2" width="6.4" height="7.2"/>
		<rect id="XMLID_00000183969407691439868180000013928299299461364635_" x="132.6" y="38.1" class="st1" width="6.4" height="7.2"/>
		<path id="XMLID_00000154390474945946961640000002227980179882614670_" class="st3" d="M167.6,34.7c0,3.3-0.8,5.9-2.5,7.9
			c-1.7,2-3.7,3-6.1,3c-1,0-1.9-0.1-2.7-0.3c-0.8-0.2-1.6-0.6-2.4-1.1v8.5h-6.4V24.8h6.4v2.1c0.9-0.8,1.9-1.5,2.9-1.9
			c1-0.5,2.1-0.7,3.4-0.7c2.4,0,4.2,0.9,5.5,2.8C166.9,28.9,167.6,31.5,167.6,34.7z M161.1,34.9c0-2-0.3-3.4-0.9-4.3
			c-0.6-0.9-1.6-1.3-2.9-1.3c-0.6,0-1.1,0.1-1.7,0.3s-1.1,0.5-1.7,0.8v10.3c0.3,0.1,0.7,0.2,1.1,0.3c0.4,0.1,0.9,0.1,1.4,0.1
			c1.6,0,2.7-0.5,3.5-1.5C160.7,38.4,161.1,36.9,161.1,34.9z"/>
		<path id="XMLID_00000062883439904179718810000007863862616629745031_" class="st3" d="M180.2,45.2h-6.4V16.9h6.4V45.2z"/>
		<path id="XMLID_00000054959244666977377150000002581344708190966942_" class="st3" d="M206.8,45.2h-6.4V43c-1.1,0.9-2.1,1.6-3,2.1
			c-0.9,0.5-2,0.7-3.3,0.7c-2,0-3.6-0.6-4.7-1.9c-1.1-1.3-1.7-3.2-1.7-5.8V24.8h6.4v10.1c0,1.1,0,1.9,0.1,2.6
			c0.1,0.7,0.2,1.2,0.4,1.7c0.2,0.4,0.5,0.7,0.9,1c0.4,0.2,1,0.3,1.7,0.3c0.4,0,1-0.1,1.6-0.3s1.2-0.5,1.7-0.9V24.8h6.4V45.2z"/>
		<path id="XMLID_00000052081240246086875570000002221199513105911197_" class="st3" d="M220.7,45.8c-1.5,0-2.9-0.2-4.3-0.5
			c-1.3-0.3-2.4-0.7-3.3-1.1v-5.4h0.5c0.3,0.2,0.6,0.5,1,0.8c0.4,0.3,0.9,0.6,1.6,0.9c0.6,0.3,1.3,0.5,2,0.7
			c0.7,0.2,1.6,0.3,2.4,0.3c0.9,0,1.7-0.1,2.4-0.4c0.7-0.3,1-0.7,1-1.3c0-0.5-0.2-0.8-0.5-1.1c-0.3-0.2-0.9-0.5-1.8-0.7
			c-0.5-0.1-1.1-0.3-1.8-0.4c-0.7-0.1-1.4-0.3-2-0.5c-1.6-0.5-2.8-1.2-3.6-2.2c-0.8-1-1.2-2.3-1.2-3.9c0-0.9,0.2-1.8,0.6-2.6
			s1-1.5,1.8-2.2c0.8-0.6,1.8-1.1,3-1.5c1.2-0.4,2.5-0.5,4.1-0.5c1.4,0,2.7,0.1,4,0.4c1.2,0.3,2.2,0.6,3,1v5.2h-0.5
			c-0.2-0.2-0.6-0.4-1-0.7c-0.5-0.3-0.9-0.5-1.4-0.7c-0.5-0.2-1.1-0.4-1.8-0.6c-0.7-0.2-1.3-0.2-2-0.2c-0.9,0-1.7,0.2-2.3,0.5
			c-0.6,0.3-1,0.7-1,1.3c0,0.5,0.2,0.8,0.5,1.1c0.3,0.3,1,0.5,2.1,0.8c0.5,0.1,1.2,0.3,1.9,0.4c0.7,0.1,1.4,0.3,2,0.5
			c1.5,0.5,2.6,1.2,3.3,2.1s1.1,2.1,1.1,3.7c0,1-0.2,1.9-0.7,2.7c-0.4,0.9-1.1,1.6-1.9,2.2c-0.9,0.6-1.9,1.1-3.1,1.5
			C223.8,45.6,222.4,45.8,220.7,45.8z"/>
		<g>
			<path class="st2" d="M181.7,36.5c0.2,0,0.4,0.1,0.6,0.2l0.2,0l0.3,0.3l0.1,0.7l0.1,0.2l0,0.2l-0.1,0.1l0,0.1c0,0.3,0,0.6-0.1,1
				l0,0.3l-0.1,0.4l0,0.5l0,0.2l-0.1,0.3l-0.1,0.3l-0.1,0.4l-0.3,0.7l0,0l-0.1,0.2l0,0.4l0.1,0l-0.1,0l-0.2,0.1l0,0.1l-0.1,0.5
				l-0.1,0.1l-0.4,2l-0.1,0.5l0,0.1l0,0.1l-0.1,0.4c-0.1,0.3-0.1,0.6-0.2,0.9l-0.1,0.2l-0.3,1.3l0,0.2l0,0.3l0,0.1l0,0.2l0,0.1
				l0.1,0.2l0,0.1l-0.2,0.1l-0.1,0.2l-0.3,0.5l0,0l-0.4,1.5l0,0.3l-0.2,0.4l0,0.1l0,0.5l-0.1,0.3l-0.1,0.4l-0.1,0.3l0.1,0l0.2,0
				l0.1,0l0.3-0.1l0.2-0.1L180,55l0.3,0l0.2,0l0.3-0.1l0,0l0.1,0l0.1,0l0,0l0,0l0,0l0.1,0l0.2,0l0,0l0,0l0.3-0.1l0,0l0.1,0l0.2,0
				c0.2,0,0.4,0,0.5-0.1c0.2,0,0.4,0,0.7,0l0.1,0l0.2-0.1l0.2-0.1l0.2,0l0.1,0l0.2,0l0.1,0l0.3,0l0.1,0l0.2-0.1l0.1,0l0.1,0l0.1,0
				l0.1,0c0.1,0,0.1,0,0.4,0l0.2,0l0.1,0l0.1,0l0.2,0l0.3,0l0.1,0c0.1,0,0.1,0,0.2,0l0,0l0.3,0l0.2,0l0.1,0l0,0l0.3-0.1
				c0.2,0,0.4,0,0.7-0.1c0,0,0,0,0.1,0l0.1,0l0.1,0.1l0,0.1l-0.2,0l-0.2,0l-0.1,0.1l-0.4,0l-0.1,0l-0.6,0.1l-0.2,0
				c-0.6,0.1-1.2,0.2-1.7,0.2l-0.1,0l-0.3,0c-0.3,0-0.6,0.1-0.8,0.1l-0.5,0.1l0,0l-1,0.2l-0.2,0l-0.2,0l0,0l-0.2,0.1l-0.2,0.1
				l-0.2,0l-0.5,0.1l-0.2,0l-0.4,0.1l-0.1,0l-1.6,0.4l-0.2,0.3l-0.4,1.3l-0.4,1.4c0,0.4-0.2,0.9-0.3,1.3c0,0.2-0.2,0.4-0.2,0.5
				l-0.6,2.3c0,0.2-0.1,0.4-0.1,0.6l-0.2,0.5c-0.1,0.4-0.2,0.8-0.3,1.2l0,0.1l-0.1,0.2l-0.1,0.5l-0.1,0.6l0,0.5l-0.1,0.1l-0.1,0.3
				l-0.2,1.1c-0.1,0.3-0.1,0.4-0.1,0.4l0,0.1l-0.1,0.1l-0.1,0.9l-0.1,0l-0.1,0.5l0,0.4l0,0.1l-0.1,0.5l-0.1,0.3l-0.1,0.4l-0.1,0.1
				l0,0.1l-0.1,0.7c0.1,0.2-0.1,0.6-0.1,0.8c0,0.3-0.1,0.7,0,1l-0.1,0.2c0,0.7,0,1.5-0.1,2.2c0,0.4,0.1,0.8,0.1,1.1
				c-0.1,0.2-0.1,0.4-0.2,0.6c-0.2,0.2-0.3,0.5-0.6,0.3c-0.3-0.6,0-1.2,0-1.8c0-0.5,0.3-1.1,0.2-1.6l0.1-0.8c0.1-1,0.1-1.9,0.3-2.8
				l0-0.7l0.2-1l0.1-1l0.1-0.4l0.3-1.5l0.1-0.6l0.1-0.7l0.1-0.2c0-0.1,0-0.1,0-0.2l0.2-1l0-0.2l0-0.2l0.1-0.3l0.1-0.1
				c0-0.1,0-0.1,0-0.1c0-0.1,0-0.3,0-0.4l0.1,0c0.1-0.6,0.3-1.2,0.4-1.8c0.2-0.7,0.4-1.4,0.6-2.1c0.1-0.6,0.1-0.6,0.3-1.2l0.1-0.8
				l0.1-0.3l0.1-0.5l0.1-0.3l0.2-0.4c0.1-0.3,0.1-0.5,0.2-0.8c-0.4,0.2-0.9,0.4-1.4,0.6c-0.3,0-0.6,0-0.9,0.1l-2.4,0.7
				c-0.2,0.1-0.4,0.1-0.6,0.2l0,0c-0.3,0.2-0.8,0.3-1.2,0.3l-0.1,0c-0.1,0.1-0.3,0.1-0.4,0.1l-0.5,0.1l-2.1,0.7l0,0.1l-0.5,0.2
				l-0.6,0.2l-0.4,0.2l-0.4,0.1l-0.3,0c-1.7,0.6-3.4,1.2-5,1.8l0,0l-0.7,0.3l-0.4,0.2l-0.6,0.2l-0.8,0.3l-0.7,1.2
				c-0.4,1-1.1,2.1-1.6,2.9l-0.3,0.5c0.1,0.3-0.2,0.7-0.2,1c-0.2,0.1-0.3,0.2-0.4,0.4l-0.9,1.6c-0.1,0.2-0.3,0.3-0.3,0.6
				c-0.4,0.5-0.6,1-0.9,1.6l-0.3,0.5l0,0.3l-0.1,0.4l-0.2,0.3l-0.2,0.1l-0.2,0.2l0,0.3l-0.3,0.2l-0.1,0.5l0.1,0.2l0,0.2l-0.2,0.2
				l-0.1,0.2c0,0.1,0.1,0.1,0,0.3c-0.2,1-0.5,1.4-1,2.2l-0.6,0.9l0,0.1l-0.1,0l-0.1,0.1l-0.2,0.3l-0.1,0.2l-0.1,0l-0.1-0.1l-0.1-0.1
				l-0.1-0.1l0,0l0-0.1l0-0.1l0-0.1l0-0.1l0-0.2l0.1-0.2l0-0.1l0.1-0.1l0-0.1l-0.1,0l0,0l0,0l0-0.1l0-0.1l0-0.3l0.1-0.3l0-0.1
				l0.1-0.1l0-0.2l-0.1,0l0,0l0.1,0l0.1-0.2l0.1,0l0.1,0l0.1-0.1l0.1-0.1l0.1-0.1l0.2-0.3l0.1-0.4l0.1-0.1l0-0.1l0,0l0,0l0,0l0-0.2
				l0.1-0.3l0.1-0.1l0.2-0.3l0.3-0.1l0.5-1.1l0.2-0.3l0.5-1.1l0.1-0.2l0.1-0.3l0-0.2l0.2-0.3l0.2-0.3l0.3-0.4l0.1-0.3l0.3-0.2
				l0.2-0.4l0.1-0.1l0.2-0.4l0.2-0.3l0.2-0.4c0.1-0.2,0.2-0.5,0.4-0.7l0.2-0.5l0-0.2l0.1-0.1l0.1-0.2l0.2-0.3l0.2-0.5l0.1-0.1l0.5-1
				l0.1-0.4l0.2-0.1l0.3-0.5l0.1-0.3l0.2-0.2l0.3-0.6l0,0l-1.6,0.6l-0.2,0.2l-0.6,0.2l-0.6,0.2l-1.1,0.5l-0.7,0.5
				c-0.5,0.3-1.1,0.4-1.5,0.7c-1,0.3-1.9,0.9-2.8,1.4l-0.2,0c-0.3,0.6-0.8,1-1.4,1.2l0,0c-0.1,0.3-0.1,0.5-0.1,0.8
				c-0.2,0.4-0.7,0.6-1.2,0.5l-0.2-0.2l0-0.2l0-0.1c-0.3,0.3-0.6,0.4-1,0.3c0,0.1-0.2,0.1-0.3,0.1l-0.2-0.3c0-0.1,0-0.1,0-0.2
				c0.1-0.3,0.4-0.6,0.7-0.8l0.6-0.3l0.3-0.3l0.2,0.1c0.8-0.5,1.8-1.1,2.9-1.6l0-0.1l0.4-0.3l0.2-0.1l0.4-0.1l0.3-0.1l0.1-0.1l0.1,0
				c0.6-0.3,1.3-0.5,2-0.8l0.2-0.2l0.5-0.3l0.3-0.2l0.2-0.1l0.8-0.2l0.3,0c1.4-0.6,2.8-1,3.8-1.4l0.1-0.2l0.1-0.1l0.1-0.3l0.2-0.4
				l0.5-0.6l0.6-1l0.5-0.7l0.1-0.2l0.7-0.7l0.3-0.4l0,0l0.3-0.7l0.5-0.7l0.1-0.2l0.6-0.6l0.1-0.2l0.3-0.3l0.6-0.8l0-0.1l0.2-0.3
				l0.3-0.2l0,0l0.2-0.4l0.1-0.1l0.2-0.2l0.2-0.2l0.8-1l0.4-0.5l0.2-0.3c0.2-0.3,0.4-0.5,0.6-0.8l0-0.1l0.1-0.1l0-0.2l0.1-0.2
				l0.1-0.1l0.3-0.2l0.1-0.1l0.3-0.2l0.6-0.8l0-0.1l0.1-0.1l0.1-0.2l0.1-0.1l0.1-0.1l0.1,0l0.1-0.1c0.2-0.3,0.5-0.5,0.7-0.8l0.1-0.1
				l0.3-0.3l0.2-0.4l0.3-0.3l0.4-0.4l0.1-0.1l0.2-0.3l0.1-0.1l0.2-0.3l0-0.2l0-0.1l0.2,0l0.2-0.1l0,0l0.6-0.7l0.1-0.2l0.1-0.1
				l0.2-0.2l0.3-0.3l0.2-0.1l0.1-0.2l0.4-0.3l0,0l0.6-0.6l0-0.1l0.1-0.1l0.1,0l0,0l0,0c0.1-0.2,0.3-0.3,0.5-0.5l0.1-0.2l0.1-0.2
				l0.2-0.2l0.3-0.2l0.2-0.2l0.2-0.1l0.2-0.1c0.3-0.2,0.5-0.4,0.8-0.6l0.2-0.2l0.4-0.3l0.1-0.2l0.1-0.1l0,0l0.4-0.3l0.2-0.2l0.2-0.2
				l0.2-0.1l0.1,0l0.2,0l0.1-0.1l0.4-0.1l0.1-0.1l0.2,0.1l0.1,0l0.2-0.1l0.1,0l0,0.1c0.2,0,0.5-0.1,0.7-0.1L181.7,36.5L181.7,36.5z
				 M168.5,49.3c-0.1,0.2-0.3,0.3-0.4,0.5l-0.1,0c-0.1,0.3-0.4,0.5-0.4,0.8l-0.4,0.4l-0.1,0.1l-0.2,0.2l-0.1,0
				c-0.6,0.7-1.2,1.5-1.8,2.2c-0.1,0.3-0.4,0.6-0.6,0.9c0,0.2-0.1,0.3-0.2,0.4l-0.2,0c-0.3,0.7-0.9,1.2-1.1,1.9l-0.6,0.8l-0.1,0
				c-0.1,0.3-0.3,0.5-0.4,0.8c-0.5,0.5-0.9,1.2-1.3,1.8c-0.4,0.6-0.9,1.1-1.2,1.8l1.3-0.5l0.1,0l0.5-0.3l0.7-0.2l0.7-0.4l0.3-0.1
				l0.5-0.2l0.6-0.2l0.2,0c0.4-0.2,0.9-0.3,1.3-0.5l0.1-0.1l0.3-0.2l0.4-0.1l0.7-0.3l0.3-0.1l0.4,0l0.2-0.1l0.2-0.1l0.1,0l2.8-1
				l0.4-0.2l0.4-0.2l0.2-0.1l0.3-0.1l0.3-0.1l0.2-0.1l0.2-0.1l1-0.2l0.3-0.2l0-0.1l0.1,0l0.2,0l0.6-0.2l0.1,0l0.1,0
				c0.3-0.1,0.5-0.1,0.8-0.2l0.2-0.1l0.1,0l0.1,0l0.7-0.2l0.1-0.1l0.3-0.1l0.3-0.1l0.2,0l0-0.2l0.1-0.3l0.1-0.1l0.1-0.4l0.1-0.4
				l0.1-0.1l0-0.1l0.1-0.1l0.1-0.6l0.1-0.4l0-0.2l0-0.2l0.1-0.3l0-0.2l0-0.1l0.1,0l0-0.1l0.1-0.2l0-0.1l0.1-0.4l0.4-1.5l0.3-1l0-0.2
				l0.3-0.9l0-0.2l0.1-0.1l0-0.1l0-0.2l0.1-0.2l0.2-0.5l0-0.1l0.3-1.5l0-0.1l0-0.1l0.2-0.8c0.1-0.4,0.2-0.8,0.2-1.2l0.1-0.8
				c0.2-0.3,0-0.8,0.2-1.2c-0.1-0.2-0.1-0.4-0.2-0.6c0.1-0.3,0.1-0.6,0.3-0.9l-0.1-0.2l-0.2-0.1l-0.1-0.1l0-0.2l0-0.2l0-0.2
				l-0.1-0.2l-0.1-0.3l-0.1-0.2c-0.2-0.1-0.3-0.1-0.5-0.1l-0.6,0.4l-0.8,0.6l-0.2,0.1l-0.3,0.1l-0.5,0.2l-0.3,0.1l-0.2,0.1l0,0
				l-0.7,0.6l0,0l-0.2,0.1l-0.6,0.6l-0.1,0.2l-0.2,0.2l-0.2,0.1l-0.1,0l-0.6,0.6l-0.1,0.1l-0.2,0.2l-0.2,0.1l-1.3,1.4l-0.1,0.2
				l-0.2,0.1l-0.5,0.6l0,0.1l-0.1,0.1l-0.3,0.3l-0.2,0.3l-0.7,0.8l-0.1,0.3l-0.1,0.2l-0.1,0.1l-0.1,0.1l0,0.1l-0.1,0.2l-0.2,0.3
				c0,0.2-0.2,0.4-0.4,0.4l-0.7,1l-0.3,0.3l-0.2,0.3l-0.1,0.2L168.5,49.3L168.5,49.3z"/>
			<path class="st2" d="M197.3,50.7L197.3,50.7l0.1,0.1l0,0.1l0,0.1l0.1,0.1l0,0l0,0.4l-0.2,0.2l-0.1,0.1l-0.3-0.1l-0.5-0.1l-0.2,0
				l-0.1-0.1l-0.1,0l0-0.2l0-0.2l0-0.2l-0.1-0.3l-0.1-0.3l-0.1,0l-0.1-0.1l-0.2,0l-0.1,0l-0.2,0l-0.4,0.1c-0.9,0.3-0.5,0-1.6,0.5
				l-0.3,0.2l-0.1,0l-0.8,0.4l-0.5,0.4l-0.4,0.3l-0.3,0.2l-0.2,0.1l-0.3,0.2l-0.4,0.3l-0.1,0.1l-0.7,0.5l-0.4,0.4l0,0.1l-0.4,0.4
				l-0.1,0.2l-0.1,0.1l-0.1,0.2l-0.1,0.2l-0.1,0.3l-0.2,0.2l-0.1,0.2l-0.3,0.3c-0.1,0.2-0.2,0.4-0.2,0.6c0,0.3,0,0.1,0.2,0.2
				l0.1,0.1l0.2,0.1l0.2,0.2l0.1,0.1l0,0c0.2,0.1,0.4,0.1,0.5,0.2l0.4,0.1l0,0.1l0.5,0.1l0.3,0l0.2,0.1l0,0l0,0l0.8,0.1l0.3-0.1
				l0.2,0l0.3,0.1l0,0l0.1,0l0.1,0.1l0.6,0.1l0.3,0l0.2,0l0.6-0.1l0.2,0.1l0.4,0l0.5,0l0.2,0.1l0.5,0.1l0.2,0.3l0.1,0.2l0,0.1l0,0.1
				l-0.1,0.2l-0.2,0.2l-0.4,0.3l-0.1,0l-0.1,0.2l-0.3,0.2l-0.1,0l-0.3,0l-0.7,0.3l-1.2,0.4l-0.4,0.1L190,61l-0.3,0.1l-0.4,0.1
				l-0.5,0.1l-0.3,0.2l-0.4,0.2l-0.8,0l-0.5,0.1l-0.3,0.1L186,62l-0.2,0l-0.4,0.2l-0.2,0l-0.5,0.3l-0.4,0.2l-0.2,0l-0.3,0.1
				l-0.7,0.3l-0.1,0l-0.3,0.1l-0.1,0l0,0l-0.1,0l-0.1,0.1l-0.1,0.1l-0.1,0l0-0.1l0,0l0,0l0,0l0-0.1l0.1,0l0,0l0.1-0.1l0.8-0.4
				l0.3-0.2l0.1,0l0.4-0.2l0.3-0.1l0.1,0l0.7-0.5l0.3-0.1l0.2-0.1l0.4,0l0.3-0.1l0.2-0.1l0.6-0.2l0.5-0.2L188,61l0.6-0.2l0.1,0
				l0.3-0.1l0.2-0.1l0.1,0c0.1,0,0.3-0.1,0.5-0.1l0.2-0.2l0.6-0.2l0.5-0.2l0.9-0.2l0.1,0l0.2-0.1l0.3-0.1l0.2-0.2l0.5-0.2l-0.2,0
				l-0.1-0.1l-0.3,0l-0.4,0l-0.5-0.1l0-0.1l-0.1,0l-0.3,0.1l-0.2-0.2l-0.8-0.1l-0.1,0l-0.2,0l-0.8-0.2l0,0l0,0
				c-0.6-0.1-1.1-0.1-1.3-0.2l0,0l0,0l-0.2,0l-0.1,0L187,58l-0.1,0l-0.1-0.2l-0.1,0l-0.3-0.1l-0.5-0.4l-0.1-0.4l0.1,0.1
				c0-0.1,0-0.2,0.1-0.4c0-0.1,0.1-0.2,0.2-0.4l0,0l0.3-0.6l0.2-0.3l0.1,0l0.1-0.2l0.1-0.2l0.1-0.2l0.1-0.2l0.1-0.1l0.3-0.1l0,0
				l0.1-0.1l0.2-0.1l0,0l0.5-0.5l0.2-0.2l0.2-0.3l0.1-0.1l0.1-0.2l0.1-0.1l0-0.2l0.1-0.1l0.2,0l0.2-0.1L190,52l0.4-0.1l0.2-0.1
				l0.1,0l0.5-0.2l0.1-0.1c0.4-0.2,0.5-0.3,0.6-0.4l0.2-0.2l0.1,0l0.3,0l0.1-0.1l0.1-0.1c0.1,0,0.1,0,0.2-0.1
				c0.2-0.1,0.6-0.3,0.9-0.4l0.2-0.1l0.2-0.1l0.1-0.1l0.4-0.1l0.2-0.1l0.5,0l0.2,0l0.1,0l0,0l0.3,0l0.1,0l0.4,0l0.3,0.1l0.1,0.1
				L197,50c0.1,0.1,0.2,0.3,0.3,0.5l0.1,0L197.3,50.7L197.3,50.7z"/>
			<path class="st2" d="M205.3,55.7l-0.2,0.3l-0.4,0.3l-0.2,0.1l-0.1,0.1l0,0.1l-0.1,0.1l-0.3,0.2l-0.2,0.2l0,0.1l-0.1,0.1l-0.2,0.1
				l-0.4,0.3l-0.2,0.1l-0.4,0.4l-0.2,0.1l-0.2,0.1l-0.3,0.2l-0.2,0.2l-0.2,0.1l-0.4,0.2l-0.4,0.3l-0.3,0.1l-0.5,0.1l-0.3,0.2l-0.6,0
				c-0.3,0-0.6-0.1-0.8-0.3l-0.1-0.1l0-0.2c-0.1-0.2-0.1-0.5-0.1-0.8l0-0.1l0.1-0.6l0.1-0.6l0-0.2l0.1-0.4l0.2-0.3l0-0.1l0.1-0.2
				c0-0.1,0.1-0.2,0.1-0.3l0.2-0.4l0-0.2l0-0.2l0.1-0.1l0-0.3l0.2-0.3l0.2-0.1l0.1-0.2l0.2-0.3l0.3-1l0.1-0.5l0.2-0.5l0.2-0.2
				l0.1-0.3l0.1-0.1l0-0.3l0-0.1l0.1-0.3l0.2-0.2l0.1-0.1l0.1,0l0-0.1l0.2-0.2l0.2-0.2c0.1-0.2,0.2-0.3,0.4-0.3c0,0,0.1,0,0.1,0
				l0.1-0.1l0-0.1l0.2-0.1l0.2,0l0.2,0.1l0,0.1l0,0.3l-0.1,0.4l-0.2,0.4l-0.1,0.1l-0.1,0.1l-0.1,0l-0.2,0.1l-0.4,0.6l0,0.2l0,0.1
				l-0.3,0.5c0,0.1-0.1,0.1-0.1,0.1l0,0.2l-0.2,0.3l-0.1,0.3l-0.2,0.3l0,0.1l-0.2,0.2l-0.1,0.2l0,0.1l-0.3,0.5l-0.3,0.6l-0.1,0.3
				l-0.1,0.3l-0.2,0.6c-0.2,0.3-0.2,0.3-0.2,0.4l-0.1,0.6l0,0.2l-0.1,0.5l0,0.6l0,0.2l0,0.4c0.1,0.2,0.1,0.3,0.2,0.3l0.1,0l0.2-0.1
				l0.1,0l0.2,0l0.2-0.1l0.2-0.1l0.1,0l0.1,0l0.6-0.3l0.1,0c0.1-0.1,0.3-0.2,0.5-0.2l0.1-0.1l0.3-0.3l0.2-0.2l0.5-0.3l0.4-0.3
				l0.2-0.1l0.9-0.7l0-0.1l0.2,0l0.5-0.4l0,0l0-0.1l0.2-0.2l0.1,0l0.1-0.1l0.2-0.1l0.2-0.2l0.3-0.2l0.2-0.2l0.3-0.3l0.1-0.1l0.3-0.3
				l0.1-0.1l0.1-0.1l0.5-0.5l0.1,0l0.2-0.2l0.1-0.1l0.1-0.1c0.1,0,0.1,0,0.1,0l0.1-0.2l0.2-0.1l0.1-0.1l0.2-0.2l0.3-0.2l0.1-0.1
				c0.2-0.2,0.4-0.4,0.7-0.7l0-0.1l0.1,0l0.1,0l0.1,0.2l-0.1,0.1l-0.1,0.1l-0.2,0.1l0,0.1l-0.1,0l0,0l0,0.1l-0.3,0.3l-0.1,0
				l-0.8,0.7l-0.2,0.3l-0.2,0.3l-0.2,0.1l-0.2,0.1c-0.5,0.5-0.9,0.9-1.3,1.3l-0.1,0.2l-0.1,0.1l-0.3,0.2l-0.1,0.1l0,0.1L205.3,55.7z
				 M204.9,42l-0.1,0.5l-0.1,0.2l-0.1,0.1l0,0l-0.3,0.1l-0.2,0.1l-0.2,0.1l-0.2,0.2l0,0l-0.1,0.1l-0.1,0.3l-0.3,0.1l-0.1,0.5
				l-0.3,0.1l-0.1,0.2l-0.2,0.3l0,0.1l-0.3,0.3l-0.1-0.2l0.1-0.1c0,0,0-0.1,0-0.2l0.2-0.6l-0.1-0.2l0.1-0.5l0-0.2l0.2-0.4l0.2-0.3
				l0.1,0l0.2-0.4l0.1-0.2l0.2-0.2l0.1-0.3l0,0l0.1-0.1l-0.1,0l0.1-0.1l0,0.1l0.2-0.2l0.3-0.1l0.3,0.2l0.3,0.1l0,0.3l0.1,0.1
				L204.9,42z"/>
			<path class="st2" d="M217.5,51.8L217.5,51.8l0.1-0.2l0.4-0.7l0.1-0.3l0.1-0.1l0-0.1l0.1-0.1l0.3-0.4l0.1-0.2l0-0.1l0,0l0-0.3l0,0
				l-0.1,0l-0.3,0.1l-0.3,0.2l-0.8,0.5l-0.2,0.1l-0.1,0.1L216,51l0,0l-0.2,0.2l-0.2,0.1l-0.2,0.2l-0.6,0.5l-0.6,0.5l-0.2,0.2
				l-0.4,0.3l-0.1,0.1l-0.3,0.3l-0.2,0.1l-0.5,0.4l-0.1,0.2l-0.1,0.2l-0.2,0.1l-0.2,0.2l-0.6,0.5l0,0.1l-0.3,0.2l-0.1,0l0,0
				l-0.3,0.1l-0.3,0.2l-0.2,0c-0.1,0.1-0.2,0.1-0.3,0.2l-0.1,0.1l-0.5,0.3l-0.1,0.1l-0.4,0.3l-0.1,0l-0.1,0l-0.1,0l-0.2,0l0,0
				c-0.4,0.2-0.8,0.1-1-0.1c-0.2-0.3-0.2-0.8-0.1-1.3l0-0.4l0.1,0l0-0.1l0.1-0.2l0-0.1l0.1,0l0,0l0-0.2l0.1-0.3l0.3-0.3l0-0.1
				l0.1-0.4l0.1-0.2l0.2-0.2l0.3-0.4l1-1.4l0,0l0,0l0.3-0.4l0.1-0.1l0.4-0.5l0.2-0.2l0.6-0.7l0,0l0.3-0.4l0.1-0.2l0.1-0.2l0.1,0
				l0.2,0l0.1-0.1l0.2-0.1l0.1-0.1l0.1-0.1l0.1-0.1l0-0.1l0.2-0.1l0.8-0.7l0.1-0.2l0.1-0.1l0.2-0.1l0.1,0l0.1,0l0.2-0.1l0.1,0
				l0.1-0.1l0.2-0.1L215,46l0.2-0.1l0.1-0.1l0.3,0l0.2-0.1l0.2,0l0.1,0l0.1,0l0,0l0.1,0l0.1,0l0,0.1l0.1,0l0.1,0.1l0.1,0.3l-0.1,0.1
				c0,0.1-0.1,0.2-0.2,0.4c-0.1,0.1-0.2,0.1-0.2,0l-0.3,0.2l-0.2,0.1l-0.5,0.1l-0.5,0l0,0l-0.1,0l0,0l-0.1,0l-0.2,0.1l-0.2,0
				l-0.4,0.3l-0.4,0.3l-0.6,0.4l-0.4,0.3c-0.2,0.1-0.3,0.3-0.4,0.4c0,0,0,0,0,0l-0.2,0.3l0,0l-0.1,0l-1.1,1.2l-0.1,0.1l-0.2,0.3
				l-0.2,0.2l-0.2,0.2l-0.2,0.2l-0.1,0.1l-0.2,0.3l0,0.1l0,0.1l-0.3,0.5l-0.1,0.1l0,0.1l-0.1,0.1l0,0.1l-0.1,0.1l-0.1,0l0,0.2
				l-0.1,0.2l0,0.1l-0.1,0.2l-0.1,0.2l-0.2,0.4l0,0.1l0.1,0.2l0,0.1l0,0.1l0,0.1L208,55l-0.1,0.1l-0.1,0.2l-0.1,0.2l0,0.1l0,0.1
				l0,0.2l0.1,0.1l0.1,0.1l0.1,0l0.6-0.4l0.2-0.1l0.4-0.2l0,0l0.1-0.1c0.3-0.2,0.7-0.5,1-0.7l0.1-0.1l0.2-0.2l0.1-0.1l0.2,0
				c0.3-0.2,0.6-0.4,0.9-0.7l0.1-0.1l0.2-0.1l0,0l0.1,0l0.1-0.1l0.1-0.1l0.4-0.3l0.2-0.2l0.2-0.2l0.7-0.6l0.2-0.2l0.7-0.5l0.2-0.1
				l0.5-0.4l0.2-0.3l0.5-0.4l0.1-0.1l0.2-0.2l0.1-0.1l0.3-0.3l0.3-0.3l0.8-0.4l0.3-0.1l0.3,0l0.2,0.1l0.1,0.1c0.1,0,0.2,0,0.3,0.2
				l0,0l0.1,0l0,0.1l0,0.1l0.1,0l0,0.1l0,0l0,0.1l0,0.1l0,0.1l-0.1,0.2c0,0.1-0.1,0.1-0.1,0.2l-0.1,0.4l-0.1,0.2l-0.1,0l-0.3,0.5
				l0,0.1l0,0l-0.1,0l-0.1,0.3l0,0.1l0,0.1l-0.2,0.4c0,0.1-0.1,0.2-0.1,0.2l0,0.2l0,0c0,0.1,0,0.2,0,0.3c0,0.1,0,0,0.1,0
				c0,0,0.1,0,0.1,0l0.1-0.1l0.2,0l0.1,0l0.2,0l0.1-0.1l0.1,0c0.2-0.1,0.4-0.2,0.6-0.3l0.2-0.1l0.2-0.1l0.2,0l0.9-0.5l0.1-0.1
				l0.3-0.2l0,0l0.3-0.2l0.2-0.2l0.1-0.1l0.1-0.1l0.9-0.5l0-0.1l0.1,0l0.2-0.1l0.1-0.1l1.3-0.7l0.1,0l0.7-0.4c0,0,0.1,0,0.1,0l0.1,0
				l0.1,0.2l-0.1,0.1l-0.2,0l-0.5,0.2l-0.3,0.2l-0.1,0l-0.4,0.2l-0.2,0.1l-0.6,0.5l-0.4,0.3l-0.5,0.3l-0.6,0.4l-0.1,0.1l-0.3,0.2
				l-0.1,0.1l-0.2,0.1l0,0l-0.2,0.1l-0.2,0.2l-0.1,0l0,0.1l-0.7,0.4l0,0.1l0,0l-0.2,0.1l0,0.1l-0.5,0.3l-0.4,0.2l-0.1,0.1l0,0l0-0.1
				l-0.1,0l0,0.1l-0.1,0l0,0l-0.2,0.1l-0.3,0.1l-0.1,0l-0.2,0l-0.2,0l-0.1,0l-0.1-0.1l0-0.1l-0.1-0.1c-0.1-0.1-0.1-0.2-0.1-0.4
				l0-0.2l0-0.1l0.1-0.3l0.1-0.2l0.2-0.3L217.5,51.8z"/>
		</g>
	</g>
</g>
</svg>
